<?xml version="1.0" encoding="UTF-8"?>
<svg id="Layer_1" xmlns="http://www.w3.org/2000/svg" version="1.1" viewBox="0 0 4284 5712">
  <defs>
    <style>
      .color {
        fill: #9cb8ff;
      }
    </style>
  </defs>
  <path class="color" d="M3745.74,3164.89l-267.67-3.76c-33.28-.29-148.8-8.89-172.09,5.93-8.26,5.26-18.02,18.98-25.17,24.43-2.95,2.24-9.74.13-13.38,2.49-13.82,8.98-15.91,26.5-3.26,38.26l11.99-7.79c5.49-1.19,7.4.19,5.81,5.81-2.93,10.32-32.95,28.07-41.78,37.79l-1.59,5.52c.78,5.41,4.02,10.69,3.85,16.24-2.73,90.66-1.89,180.52,6.77,270.68,1.81,18.84-5.73,28.07-6.81,38.75-.69,6.79,4.71,13.54,3.33,22.66-3.06,20.13-17.71,12.11-28.85,15.11-8.72,2.35-49.36,18.99-53.41,15.25-2.05-1.89,1.46-17.9-15.61-16.04,2.33-21.79-3.9-44.2-4.7-64.71-5.47-141.56,6.14-286.3.33-428.59-1.25-30.64-22.74-53.98,17.46-57.49,30.2-2.64,67.94.25,99.12,0,133.97-1.08,271.62,10.76,404.59,4.32,14.3-.69,60.06-12.93,67.28-4.17,15.6,18.95,2.45,57.09,13.79,79.32Z"/>
  <path class="color" d="M3781.4,3089.59l.04,29.71-7.87,1.91c2.26-10.76-10.35-6.81-11.58-8.13-7.15-7.64,7.77-26.19,19.42-23.49Z"/>
  <path class="color" d="M3321.68,3200.58c-5.73-.31-12.23,1.02-17.79-.02-29.14-5.46,20.95-42.55,17.79.02Z"/>
  <path class="color" d="M3238.43,3656.65l-.18,11.54c-12.85,5.77-23.71,5.94-27.68-9.62l6.05-9.84,21.81,7.92Z"/>
  <path class="color" d="M3780.79,3160.32l-15.19.6,7.98-23.74c15.26-.16,12.68,13.16,7.22,23.14Z"/>
  <path class="color" d="M3274.05,3593.15c1,7.94,12.1,30.59-3.88,27.76,2.82-8.6-12.6-30.75,3.88-27.76Z"/>
  <rect class="color" x="3329.61" y="3180.79" width="15.83" height="11.86"/>
  <rect class="color" x="3179.01" y="3660.56" width="15.81" height="7.89"/>
  <polygon class="color" points="3400.94 3668.51 3394.93 3676.36 3389.07 3676.38 3389.09 3664.51 3400.94 3668.51"/>
</svg>