<?xml version="1.0" encoding="UTF-8"?>
<svg id="Layer_1" xmlns="http://www.w3.org/2000/svg" version="1.1" viewBox="0 0 4284 5712">
  <defs>
    <style>
      .color {
        fill: #007339;
      }
    </style>
  </defs>
  <path class="color" d="M2505.92,4170.16c-.63-6.24,7.17-12.23-2.78-17.97l-29.7,5.81-3.54,4.41c3.74,13.4,5.41,29.66,3.59,43.41-.95,7.19,1.43,6.4-7.92,5.86v-57.49c0-7.09-15.69-9.56-21.56-10.15-55.58-5.56-115.52,2.79-171.33,2.71-300.78-.43-600.08,4.03-902.8,5.65-239.84,1.28-479.87.21-719.66-2.06-8.86-4.86,8.12-16.18,8-23.9-.08-5.11-6.1-8.99-6.87-12.95-1.95-10.03,1.25-33.33-14.85-32.74-10.35.38-21.84,20.28-29.98-13.58-1.12-133.67,3.68-267.93,8.33-400.9.27-7.81-3.29-14.14-4.14-21.56l705.47-7.92c-6.93,17.61-30.95-7.97-31.69,15.8,27.11-4.68,45.86,11.57,72.81,8.51l2.48,11.31h11.88c-8.09-13,13.3-10.29,11.87-23.74-4,7.86-74.05,1.54-59.41-11.89,7.74-2.27,10.6,8.42,17.03,7.29,3.19-.56,7.17-6.43,12.84-7.17,19.05-2.48,37.27,7.16,49.19-10.98,3.88-154.15-4.48-309.03.05-463.12.6-20.46,13.68-46.68-.14-66.99-9.94-14.61-49.56-2.43-64.96-2.09-256.2,5.71-525.28,9.25-781.13,4-14.61-.3-23.47-11.68-25.78,9.53-9.27,84.99,2.19,196.9.36,285.83-.96,46.71-7.22,95.72-8.25,142.41-5.1,231.07-5.15,459.73-14.88,690.08-.49,11.7,6.83,29.26,2.88,43.19l16.05,8.35-15.76,1.96v31.76l11.82-.08c-3.78-13.8,9.35-12.19,13.81-19.83,6.48-11.11,1.28-31.94,20.03-35.53,17.11-3.27,44.43,1.07,63.48.07,44.42-2.32,88.57-5.57,132.7-6.22,97.57-1.45,199.72-.66,299.3-2.06,371.89-5.25,743.78-11.09,1117.36-3.61,47.67.95,93.39.04,139.09-.27,32.21-.22,47.71,4.97,71.13,27.78,8.67-5.77,3.11-24.11,15.89-23.9,18.38,9.09,40.9,27.78,25.13,47.44l-15.23-3.62c-8.21,23.03,20.07,15.78,32.47,11.49,14.69-5.08,13.57-34,5.22-43.28-6.51-7.24-30.94-.31-29.77-19.74,12.48-3.74,28.62,7.18,38.41,6.99,5.76-.11,9.18-6.26,14.85-6.61,11.28-.7,31.09,11.67,41.84-2.38v-59.48c0-.86-2.86-3.96-3.25-7.82ZM1308.28,3537.6l.02-5.87,11.82-9.97c1.55,9.51-1.84,16.83-11.83,15.84ZM622.86,3212.7l11.66-2.19-14.21-5.62.63-24.54,663.52-7.49c.74,6.36-.22,12.02-5.6,16.17-11.5,8.86-32.55-4.07-30.03,11.55l39.15-3.48,6.64,10.99c18.44-.27,16.46-9.42,25.48-21.45,4.67-11.91-21.96,1.14-27.68-5.92,6.11-13.51,26.69-6.34,39.65-7.9-3.73,16.77,4.26,34.48,4.27,49.58.07,79.04,1.25,166.97-4.1,246.01-.3,4.47-1.68,21.18-6.62,21.9l-26.09-3.35c-10.02,5.81-19.86,10.47-27.2,18.6.53.06,1.06.09,1.6.16,8.98,2.16,2.74,25.12,2.44,31.7-163.93,8.14-329.01,3.21-493.42,4-12.32.06-25.02,4.26-39.54,4.33-27.95.14-58.37-4.48-86.63-4.68l-14.57-25.15c10.57-3.41,7.7-11.08,11.59-20.09-.48-3.68-31.57-9.33-35.16-5.8.76-19.03-4.41-38.59-4.23-57.5.13-13,4.27-24.17,4.38-35.52.58-61.6-2.29-123.06,4.07-184.33Z"/>
  <path class="color" d="M641.64,3657.71c6.4,9.03-8.13,13.61,22.52,6.75,9.28,13.82-13.84,14.86-13.91,27.79l-9.91-11.93-17.74,7.96-1.89-27.91c3.49-8.04,16.45-8.96,20.92-2.66Z"/>
  <path class="color" d="M1443,3573.33l.04,27.76c29.25-7.48,13.24,17.71-9.31,14.63-1.88-.26-14.7-7.69-14.65-8.87,2.63-3.76,16.54-41.95,23.92-33.52Z"/>
  <path class="color" d="M650.31,3747.79v31.72s-11.73-.07-11.73-.07c-3.75-10.83-4.14-31.62,11.73-31.66Z"/>
  <path class="color" d="M1458.85,3141.14c-1.73,10.98,6.5,43.35-11.86,43.57,6.03-11.89,1-24.09,2.83-34.93,1.27-7.54-.57-10.24,9.03-8.64Z"/>
  <path class="color" d="M2330.84,4263.24c4.57,14.91-31.33,8.13-31.65,1.97-.49-9.76,27.45.29,31.65-1.97Z"/>
  <polygon class="color" points="646.35 3922.25 634.5 3922.21 644.41 3898.46 646.35 3922.25"/>
  <path class="color" d="M650.31,3708.14v19.78s-5.86-.02-5.86-.02c-9.3-6.07-3.72-11.37-1.99-19.77h7.85Z"/>
  <polygon class="color" points="2271.37 4267.15 2255.53 4265.23 2265.36 4259.28 2271.37 4267.15"/>
  <rect class="color" x="1724.44" y="4294.97" width="11.85" height="7.89"/>
  <path class="color" d="M1213.14,3196.67c-4.13,8.69-25.43,15.65-31.67,5.85l31.67-5.85Z"/>
  <rect class="color" x="1221.09" y="3196.65" width="11.85" height="7.89"/>
</svg>