<?xml version="1.0" encoding="UTF-8"?>
<svg id="Layer_1" xmlns="http://www.w3.org/2000/svg" version="1.1" viewBox="0 0 4284 5712">
  <defs>
    <style>
      .color {
        fill: #00a0e7;
      }
    </style>
  </defs>
  <polygon class="color" points="3745.73 1162.54 3739.87 1162.52 3733.88 1156.55 3739.83 1146.72 3745.73 1162.54"/>
  <path class="color" d="M2445.74,722.46c-5.46,15.18-9.66,29.87-10.35,46.26-.6,14.2,10.24,49.29-12.2,56.04-7.94,2.39-62.13.82-69.49-3.26-5.05-2.79-3.73-10.23-12.83-11.93-11.03-2.05-41.89-3.36-55.46-4.04-35.02-1.74-70.39,3.1-105.17.18-5.04,56.12-3.94,112.23-3.82,168.66.04,16.25-.54,31.07-.19,47.47.27,12.5-3.8,61.74,5.99,65.36,7.73-20.09,26.16-12.4,40.94-3.22l.71,28.95c-16.08,2.14-5.64-25.21-19.85-21.72l-1.79,23.97-25.98,7.69,1514.39,13.53,18.77,1127.81-33.76,10.83c-214-3.85-428.17-1.34-641.32-1.46-37.38-.02-81.86,6.65-119.09,6.44-29.03-.17-11.74-57.66-20.93-76.26l17.42-10.01,701.41-3.95-10.1-932.06c-19.78,14-45.03,1.04-67.31,7.92-3.63-13.95,27.61-7.54,31.7-11.91l-5.73-31.93-11.94-3.91c-473.33-5.84-947.89,2.78-1419.97-8.79-6.83-.17-14.41-10.01-26.33-3.26l-5.88-6.21c-.54-34.1-1.35-68.48-.76-102.64,1.77-102.81,5.8-208.51,4.29-313.24-.27-18.95-9.2-36.94,1.74-57.41l342.9-3.86Z"/>
  <path class="color" d="M3583.24,2153.85l-3.65,13.59,15.53,10.13-19.77,4.01c2.34-11.38-4.01-12.35-11.85-17.84l19.74-9.9Z"/>
  <path class="color" d="M3595.16,2153.84c5.99-5.99,16.89,11.79,5.92,11.8-2.63,0-8.2-9.52-5.92-11.8Z"/>
</svg>