<?xml version="1.0" encoding="UTF-8"?>
<svg id="Layer_1" xmlns="http://www.w3.org/2000/svg" version="1.1" viewBox="0 0 4284 5712">
  <defs>
    <style>
      .color {
        fill: #6300a2;
      }
    </style>
  </defs>
  <path class="color" d="M2437.83,837.42c3.83,41.75-8.97,83.9-3.95,126.9,13.88,5.47,16.16-7.29,18.44-7.93,13.22-3.76,23.57,11.17,21.68,23.43l11.37,8.25c-18.01-3.48-33.59,10.41-47.5-3.94l-4,11.85,449.41,4.26c3.52-.89,6.22-18.18,6.35-22.08,2.6-75.61-8.81-165.67-4.31-237.93.7-11.27,13.61-22.75,8.34-37.6l12.88,21.2c14.33,3.02,44.75-8.65,54.85,4.17l-.13,337.67-398.4,1.9c-66.33-14.32-134.58,8.24-200.57-5.88l-3.73-224.26h79.27Z"/>
  <path class="color" d="M2964.98,1079.31v11.85c-45.52,5.51-92.23-3.18-138.74-.01,4.43-13.46,16.5-2.68,25.1-3.75,2.5-.31,4.09-11.45,13.15-11.29,5.45.1,10.51,6.45,19,7.37,27,2.92,54.26-7.85,81.49-4.17Z"/>
  <path class="color" d="M2881.01,965.07c2.61,4.44-1.5,22.02-5.21,23.1l-9.9-.1,3.93-23.74-11.95,11.85c-32.36-7.46,13.44-27.58,23.14-11.1Z"/>
  <path class="color" d="M2687.51,1083.3l-35.63,3.88c5.97-11.2,25.92-2.23,35.63-3.88Z"/>
  <polygon class="color" points="2766.79 1087.18 2750.96 1085.26 2760.79 1079.31 2766.79 1087.18"/>
</svg>