<?xml version="1.0" encoding="UTF-8"?>
<svg id="Layer_1" xmlns="http://www.w3.org/2000/svg" version="1.1" viewBox="0 0 4284 5712">
  <defs>
    <style>
      .color {
        fill: #17cfff;
      }
    </style>
  </defs>
  <path class="color" d="M3777.44,2875.44c-15-2.96-40.47,7.96-45.57-7.97l-5.87.13c-1.21,17.3-21.06,7.67-33.57,7.65-228.44-.34-456.96-6.88-685.84-3.78l-.05,19.88-17.77-15.91c-4.26,24.08.41,49.75.26,73.37-1.62,255.55-.51,512.46,10.13,768.53.85,20.56-2.26,46.95,1.62,67.94,2.53,13.72,20.43,41.07,29.57,17.9l9.51,6.65-3.54,48.93c170.62,8.47,342.34,2.2,513.41,3.83,123.18,1.17,249.1,3.7,372.23,8.26,28.86,1.07,58.04-.94,86.92-.41,15.8,31.24,6.43,66.28,14.33,99.35l-23.72,5.97c14.44,6.58,15.68,18.68,15.78,33.68h-19.81c4.7-15.8-6.06-14.92-9.34-20.21-9-14.52-14.86-34.07-36.07-34.74-27.03-.85-61.51,4.37-91.5,3.58-294.69-7.78-598.65-18.34-891.6-8.88-10.45.34-24.6-10.04-33.61,2.76l21.65,17.82,17.88-15.81c2.14,15.6-6.67,26.2-17.87,35.63l-6.08-11.51-15.66-.35c4.85-15.45-8.47-23.68-11.1-34.5-8.97-36.9.11-68.5-.49-102.23-7.39-417.27-15.11-837.16-20.29-1252.86-.35-28.45.57-57,.19-85.4l805.87,8.56,6.31,5.66c7.53,10.3.21,17.55.66,26.95,4.64,97.45,1.2,196.96,10.39,295,.98,10.44-6.87,14.07,5.36,22.38,21.63,14.71,46.76-18.46,47.28,14.12ZM3622.89,2746.6v-114.99l-7.73-3.93c-11.23,12.15-25.58,1.61-39.64,1.77l-2.16-31.56c-3.67-6.61-8.94-7.22-15.69-8.09-25-3.23-60.8.77-87.54.35-39.11-.61-79.39-3.79-118.58-4.29-116.77-1.49-234.79-1.63-350.97,4.17l3.74,25.9c11.29,7.34,28.02-9.58,27.97,3.73-4.97,5.32-24.08,9.5-29.99,9.57-1.56.02-1.4-11.7-11.55-7.5-13.61,5.61-2.24,36.74-2.41,45.99-.2,11.01-7.95,68.57-3.59,72.95l47.76,1.52c11.17,18.42-.2,30.19-19.99,30.22,6.83,9.55,36.36,10.97,49.55,11.82,5.16.33,10.8-3.38,15.84-3.15,152.43,6.77,335.78,14.79,487.45,7.11,16.78-.85,35.34-7.24,53.56-3.94l-1.94-19.65c-24.46-24.82-27.21,18.03-39.63,15.68-9.02-1.71-.24-25.1-5.99-31.67,9.94-3.54,49.47,6.34,51.51-2.01ZM2984.8,2613.75c5.5,1.08,8.96-1.21,11.23-6.35l-3.37-17.42c-10.07,3.06-8,15.08-7.86,23.77ZM3611,2597.87c-2.41-8.95-12.24-8.45-19.8-7.87v7.89s19.8-.02,19.8-.02Z"/>
  <path class="color" d="M3777.46,2839.74c-13.93-.46-31.86-8.13-35.12-22.79-1.03-4.63,10.2-26.7,7.46-36.67l21.87,3.67,5.79,55.79Z"/>
  <path class="color" d="M4074.7,3934.15l-3.73,33.89-12.07,1.76c3.48-14.91-17.73-15.58-15.85-31.7,13.77,6.75,18.98-1.81,31.66-3.96Z"/>
  <polygon class="color" points="3000.8 2930.87 2992.49 2913.28 3005.36 2899.86 3026.6 2906.98 3026.59 2919.27 3000.8 2930.87"/>
  <polygon class="color" points="4074.73 3886.53 4074.7 3910.32 4039.06 3892.48 4074.73 3886.53"/>
  <path class="color" d="M3488.15,2625.64l-.09,39.62c-14.36-1.56-32.53.66-35.62-15.76l19.81-4.09-3.93-19.72,19.82-.05Z"/>
</svg>