<?xml version="1.0" encoding="UTF-8"?>
<svg id="Layer_1" xmlns="http://www.w3.org/2000/svg" version="1.1" viewBox="0 0 4284 5712">
  <defs>
    <style>
      .color {
        fill: #8b005c;
      }
    </style>
  </defs>
  <path class="color" d="M2211.96,2566.19c1.11-13.69-3.49-33.35,11.81-39.65-1.92,11.73-.22,32.82-11.81,39.65Z"/>
  <path class="color" d="M2180.21,2502.75l-5.95,1443.28h-71.34c-14.72,0-10-70.9-10.1-85.4-1.92-277.43,3.81-561.81,3.99-840.27.11-172.53.26-345.13.16-517.6h83.23Z"/>
  <path class="color" d="M2160.4,3957.95c-.97,16.25,25.95,40.65-11.89,39.59,7.54-16.35-16.97-41.35,11.89-39.59Z"/>
  <path class="color" d="M2136.59,3977.72c-14.64,2.1-10.11-15.93-7.86-23.76l7.86,23.76Z"/>
  <path class="color" d="M2223.78,3938.07h-7.88s.02-19.8.02-19.8c8.95,2.41,8.44,12.25,7.87,19.8Z"/>
</svg>