<?xml version="1.0" encoding="UTF-8"?>
<svg id="Layer_1" xmlns="http://www.w3.org/2000/svg" version="1.1" viewBox="0 0 4284 5712">
  <defs>
    <style>
      .color {
        fill: #003545;
      }
    </style>
  </defs>
  <path class="color" d="M4213.44,4814.37l-35.64-37.72c-3.05-7.36,5.27-6.75,10.03-6.1,7.99,1.09,34.85,36.9,41.46,43.82h-15.85Z"/>
  <path class="color" d="M3757.64,4588.36c-.56.35-1.49,10.3-5.95,11.82-4.94-14.34-24.95-14.57-39.68-15.75-55.25-4.41-118.07,1.17-174.5.12-127.19-2.36-252.33-3.6-380.28-.12-42.65,1.16-90.39-10.02-131.04-4.21-9.57,1.37-15.54,8.58-23.57,8.58-8.03,0-14-7.21-23.57-8.58-43.62-6.23-102.03,5.33-147.06.43-23.47-2.55-9.01-4.77-36.33-.94-37.25,5.22-100.9,1.1-142.25.32-302.83-5.69-605.53-7.43-907.09-3.77-18.54.23-14.48,16.34-44.03,12.41-16.56-17.6-7.19-1.48-21.4-.35-5.41-27.3-30.74-11.21-49.55-11.56-269.27-5.08-542.9,21.66-808.61,11.61-11.73-.44-24.58-6.96-37.62-3.96l4,19.79,13.76-7.88c7.6,6.13,25.72,24.8,13.88,33.85l-138.65-2.18,6.44-10.9c15.16.11,53.04-.87,64.92-6.89,7.7-3.9,17.32-23.22,1.96-25.83-31.06-5.28-113.11-.48-146.3,4.35-17.2,2.5-28.97,10.07-16.29,27.48,9.98,13.69,64.92-11.27,81.3-11.96l-4.87,18.94c-13.16-1.23-22.49,11.8-33.09,12.78-18.22,1.69-52.05-4.51-71.02-4.32-12.2.12-24.66,6.77-37.64,4.27l.68-21.9c8.58-1.25,11.58-16.83,1.36-13.7l-71.62,35.39c-35.07,5.82-33.5-14.95-51.3-16.01-21.14-1.25-17.71,12.51-22.6,15.43-3.64,2.17-75.53,2.31-84.63,1.03-8.8-1.24-13.93-7.23-19.81-7.94-14.98-1.81-31.49.88-46.73-.38-5.3,1.27-9.57,40.52-22.41,27.92-1.84-1.81,12.16-43.7,14.31-49.52-15.94-17.62-2.72-26.55-2.24-39.44.47-12.36-3.59-63.07,3.5-67.9,15.11-.53,30.62-4.9,45.68-5.85,139.76-8.75,294.67-1.82,436.33-3.6,972.69-12.22,1944.56-12.31,2916.71-.02,114.13,1.44,226.93,6.26,341.2,3.98,19-.38,65.1-15.36,72.31,10.53,2.47,8.87-.84,18.24.91,26.2.62,2.81,6.67,2.38,7.57,5.7,2.12,7.92,1.71,30.36,7.98,34.91,21.82,15.85,11.5-32.26,18.09-33.94,7.72-1.96,5.91,14.43,15.08,16.73,7.56,21.61,4.84,45.53-22.89,42.72-10.25-1.04-17.64-17.33-28.15-8.29-13.19,11.34,1.98,36.9-11.64,47.99h-65.4l11.88-15.84c-15.46,7.11-41.28-15.88-49.53-15.88h-65.4l3.96-15.86c-15.25,3.22-92.31-4.29-99.09,0ZM309.46,4604.24l-27.72,11.84,27.76.02-.05-11.86ZM341.17,4608.21h-19.78v7.89h19.78v-7.89Z"/>
  <path class="color" d="M1569.84,4624.05h-65.4c-7.64,0-31.78,11.74-15.85-11.9h75.3l5.95,11.9Z"/>
  <path class="color" d="M3250.31,4271.18c-4.26,23.59-46.46,7.27-63.39,7.87,12.73-24.55,42.11-3.49,63.39-7.87Z"/>
  <path class="color" d="M4011.32,4275.1l-.04,31.75-16.09-1.75c-6.59-4.52-3.01-22.08-3.73-30h19.85Z"/>
  <path class="color" d="M3123.48,4275.15l-23.73-.04-.02-19.83c15.11-1.46,31.59,1.29,23.76,19.87Z"/>
  <path class="color" d="M4078.66,4263.21l-35.63-3.96.02-15.85c11.47,9.02,18.6,6.36,31.71,5.7l3.9,14.1Z"/>
  <path class="color" d="M3325.61,4251.35c-.02,14.59-8.79,11.45-19.79,7.86,2.39-9,12.39-8.32,19.79-7.86Z"/>
  <rect class="color" x="3551.57" y="4628.03" width="19.78" height="7.89"/>
</svg>