<?xml version="1.0" encoding="UTF-8"?>
<svg id="Layer_1" xmlns="http://www.w3.org/2000/svg" version="1.1" viewBox="0 0 4284 5712">
  <defs>
    <style>
      .color {
        fill: #fbff73;
      }
    </style>
  </defs>
  <path class="color" d="M2685.54,551.94c11.42.7,23.14-.68,29.66,9.93-11.52,2.73-10.43,14.04-12.83,16.62-3.55,3.82-17.28,1.05-14.83,13.09,24.99-10.58,45.37-36.58,73.28-39.62,19.51-2.12,34.45,3.83,51.38,4.12,20.94.36,147.24-3.68,152.28,4.28l.85,5.45c-11.95,20.45,11.29,65.31-12.13,74.97-6.18,2.55-79.49-1.14-93.44-1.42-10.43-.21-20.04-4.18-31.36-4.32-28.3-.34-76.7-3.04-97.29,16.01,8.51,1.97,18.26-2.48,25.82-1.97,2.97.2,6.11,4.63,8.78,4.97,9.66,1.25,19.28-9.24,16.95,4.94-13.37-.83-25.91,5.82-36.95,12.64-21.18,13.09-32.64,45.55-58.19,38.93v174.46c-14.55,2.44-86.15,6.79-86.19-13.79,0-2.04,7.17-7.61,7.33-15.85.18-8.96-7.13-15.05-7.2-23.05-.71-79.3,12.83-161.07,6.03-241.82-1.02-12.15-12.56-18.7.77-38.55,25.59,1.14,51.71-1.56,77.29,0ZM2691.51,678.8c7.49,1.26,13.17-4.64,11.83-11.87l-11.84,4.01v7.86Z"/>
  <path class="color" d="M2663.72,900.89l.04,11.86-39.64-.02c.44-7.96,14.68-2.49,21.05-4.01,2.19-.52,5.19-13.42,18.55-7.82Z"/>
  <path class="color" d="M2984.8,631.22c-1.69-9.55,8.93-12.37,15.79-15.84l-1.85,11.99c-3.42,5.07-8.16,4.13-13.95,3.85Z"/>
  <path class="color" d="M2996.63,591.59c-10.88-3.88-10.67-17.23-1.92-23.77l1.92,23.77Z"/>
</svg>